<svg id="Layer_1" data-name="Layer 1" xmlns="http://www.w3.org/2000/svg" width="55mm" height="20mm" viewBox="0 0 155.91 56.69"><defs><style>.cls-1{fill:#d0a670;}.cls-2{fill:#fff;}</style></defs><title>Artboard 1</title><path class="cls-1" d="M155.91,56.69H0V0H155.91ZM1,55.65H154.89V1H1Z"/><rect class="cls-1" x="27" y="0.52" width="1.02" height="55.65"/><rect class="cls-1" x="27.51" y="36.7" width="127.88" height="1.04"/><path class="cls-1" d="M49,27.19a5.63,5.63,0,0,1-1,1.74,4.89,4.89,0,0,1-1.55,1.16,4.22,4.22,0,0,1-1.89.43H38.25V8.35h6.24a4.35,4.35,0,0,1,1.89.42,5.08,5.08,0,0,1,1.55,1.17,5.41,5.41,0,0,1,1,1.74,6,6,0,0,1,.38,2.13V25.08A5.9,5.9,0,0,1,49,27.19Zm-1.4-13.38a3.73,3.73,0,0,0-.25-1.39,3.59,3.59,0,0,0-.68-1.13,3.09,3.09,0,0,0-1-.76,2.71,2.71,0,0,0-1.23-.28H40V28.62h4.39a2.84,2.84,0,0,0,1.23-.28,3.24,3.24,0,0,0,1-.76,3.43,3.43,0,0,0,.68-1.12,3.72,3.72,0,0,0,.25-1.38Z"/><path class="cls-1" d="M65.65,30.52,60.3,21.06H57.87v9.46H56.09V8.35h6.26a4.28,4.28,0,0,1,1.88.42,5,5,0,0,1,1.54,1.17,5.41,5.41,0,0,1,1,1.74,6,6,0,0,1,.38,2.13V15.6a6,6,0,0,1-.38,2.12,5.41,5.41,0,0,1-1,1.74,4.74,4.74,0,0,1-1.54,1.17,4.29,4.29,0,0,1-1.88.43l5.35,9.46Zm-.23-16.71a3.84,3.84,0,0,0-.92-2.52,3.2,3.2,0,0,0-1-.76,2.71,2.71,0,0,0-1.23-.28h-4.4v8.9h4.4a2.84,2.84,0,0,0,1.23-.27,3.23,3.23,0,0,0,1-.77A3.84,3.84,0,0,0,65.17,17a3.93,3.93,0,0,0,.25-1.38Z"/><path class="cls-1" d="M73.9,30.52V8.35h1.77V30.52Z"/><path class="cls-1" d="M93.16,30.52,84.94,14.38l-.17-1v17.1H83V8.35h.92L92.14,24.5l.18.95V8.35h1.77V30.52Z"/><path class="cls-1" d="M101.42,30.52V8.35h1.77V30.52Zm9.62,0-7.42-11.09L111,8.35h2.2l-7.57,11.08,7.57,11.09Z"/><path class="cls-1" d="M118.88,30.52V8.35H130v1.9h-9.33v8.24h7.55v1.9h-7.55v8.23H130v1.9Z"/><path class="cls-1" d="M145.44,30.52l-5.35-9.46h-2.43v9.46h-1.77V8.35h6.25a4.35,4.35,0,0,1,1.89.42,5.16,5.16,0,0,1,1.54,1.17,5.57,5.57,0,0,1,1,1.74,5.75,5.75,0,0,1,.38,2.13V15.6a5.74,5.74,0,0,1-.38,2.12,5.57,5.57,0,0,1-1,1.74A4.85,4.85,0,0,1,144,20.63a4.36,4.36,0,0,1-1.89.43l5.35,9.46Zm-.23-16.71a3.73,3.73,0,0,0-.25-1.39,4,4,0,0,0-.67-1.13,3.2,3.2,0,0,0-1-.76,2.71,2.71,0,0,0-1.23-.28h-4.4v8.9h4.4a2.84,2.84,0,0,0,1.23-.27,3.23,3.23,0,0,0,1-.77A3.84,3.84,0,0,0,145,17a3.72,3.72,0,0,0,.25-1.38Z"/><path class="cls-1" d="M37.31,47.5h.06a.75.75,0,0,0,.26,0,.49.49,0,0,0,.23-.15,1.18,1.18,0,0,0,.2-.32,3.17,3.17,0,0,0,.17-.52c.05-.22.1-.48.14-.78s.08-.67.11-1.09l.11-1.3h2.46V47.5h.73v1.78h-.53V48H37.84v1.24h-.53Zm3.15,0V43.83H39.14l-.06.79a12.26,12.26,0,0,1-.28,1.89,2.08,2.08,0,0,1-.49,1Z"/><path class="cls-1" d="M44.91,48.07a2,2,0,0,1-.9-.2,2.29,2.29,0,0,1-1.13-1.31,2.5,2.5,0,0,1-.16-.89,2.53,2.53,0,0,1,.17-.91,2.39,2.39,0,0,1,.46-.77,2.28,2.28,0,0,1,.7-.53,2,2,0,0,1,.87-.2,1.86,1.86,0,0,1,.89.21,2.33,2.33,0,0,1,.69.55,2.74,2.74,0,0,1,.45.78,2.62,2.62,0,0,1,.16.87,2.53,2.53,0,0,1-.17.91,2.58,2.58,0,0,1-.46.77,2.44,2.44,0,0,1-.7.53A2,2,0,0,1,44.91,48.07Zm-1.59-2.4a2.09,2.09,0,0,0,.11.7,2,2,0,0,0,.33.59,1.41,1.41,0,0,0,1.16.57,1.32,1.32,0,0,0,.66-.16,1.63,1.63,0,0,0,.51-.43,2,2,0,0,0,.31-.6,2.24,2.24,0,0,0,.11-.67,2.06,2.06,0,0,0-.12-.7,1.82,1.82,0,0,0-.32-.6,1.84,1.84,0,0,0-.51-.41,1.37,1.37,0,0,0-.64-.15,1.33,1.33,0,0,0-.67.16,1.58,1.58,0,0,0-.5.42,1.73,1.73,0,0,0-.32.6A2,2,0,0,0,43.32,45.67Z"/><path class="cls-1" d="M48.27,45.63a2.54,2.54,0,0,1,.15-.85,2.49,2.49,0,0,1,.43-.76,2.19,2.19,0,0,1,.7-.54,2.06,2.06,0,0,1,.94-.21,1.84,1.84,0,0,1,1.73,1l-.47.31a1.32,1.32,0,0,0-.25-.38,1.85,1.85,0,0,0-.32-.25,1.74,1.74,0,0,0-.36-.13,1.47,1.47,0,0,0-.36,0,1.37,1.37,0,0,0-.68.16,1.61,1.61,0,0,0-.5.43A1.8,1.8,0,0,0,49,45a2.16,2.16,0,0,0-.1.66,2.08,2.08,0,0,0,.12.71,1.77,1.77,0,0,0,.34.6,1.57,1.57,0,0,0,.51.41,1.29,1.29,0,0,0,.64.16,1.73,1.73,0,0,0,.38,0,1.31,1.31,0,0,0,.37-.15,1.64,1.64,0,0,0,.33-.26,1.14,1.14,0,0,0,.25-.38l.49.28a1.33,1.33,0,0,1-.31.47,1.9,1.9,0,0,1-.45.34,2.12,2.12,0,0,1-1.08.29,1.84,1.84,0,0,1-.88-.21,2.36,2.36,0,0,1-.69-.56,2.55,2.55,0,0,1-.46-.78A2.8,2.8,0,0,1,48.27,45.63Z"/><path class="cls-1" d="M57.05,43.83H55.44V48h-.59V43.83h-1.6v-.54h3.8Z"/><path class="cls-1" d="M59.36,43.29h.49L61.76,48h-.63l-.55-1.39h-2L58.08,48h-.63Zm1.09,2.89L59.61,44l-.87,2.19Z"/><path class="cls-1" d="M66.49,46.82a1.18,1.18,0,0,1-.11.5,1.24,1.24,0,0,1-.29.39,1.55,1.55,0,0,1-.44.24,1.5,1.5,0,0,1-.52.09H62.92V43.29h2.31a.93.93,0,0,1,.44.11,1.12,1.12,0,0,1,.33.28,1.07,1.07,0,0,1,.22.39,1.31,1.31,0,0,1,.07.44,1.34,1.34,0,0,1-.17.65,1.09,1.09,0,0,1-.5.45,1.22,1.22,0,0,1,.64.44A1.32,1.32,0,0,1,66.49,46.82Zm-3-3V45.4H65a.72.72,0,0,0,.29-.06.92.92,0,0,0,.22-.17.73.73,0,0,0,.15-.25.81.81,0,0,0,.06-.31,1.06,1.06,0,0,0,0-.31,1.26,1.26,0,0,0-.14-.26.69.69,0,0,0-.22-.16.66.66,0,0,0-.27-.06Zm2.38,2.89a1.06,1.06,0,0,0,0-.31.93.93,0,0,0-.15-.26.83.83,0,0,0-.23-.19.68.68,0,0,0-.29-.06H63.51v1.63h1.62a.66.66,0,0,0,.3-.07.69.69,0,0,0,.24-.18.81.81,0,0,0,.22-.56Z"/><path class="cls-1" d="M68.7,45.36h.59l1.53-2.07h.68l-1.66,2.3L71.65,48H71l-1.61-2.15H68.7V48h-.59V43.29h.59Z"/><path class="cls-1" d="M74.26,43.29h.49L76.66,48H76l-.55-1.39h-2L73,48h-.63Zm1.08,2.89L74.51,44l-.87,2.19Z"/><path class="cls-1" d="M81.66,43.29h.5L84.06,48h-.63l-.55-1.39H80.93L80.39,48h-.63Zm1.09,2.89L81.91,44l-.86,2.19Z"/><path class="cls-1" d="M86.53,44.62c0,.61-.11,1.14-.19,1.57A4.54,4.54,0,0,1,86,47.27a1.55,1.55,0,0,1-.46.62,1,1,0,0,1-.63.2l-.11-.59a.75.75,0,0,0,.26,0,.49.49,0,0,0,.23-.15,1.18,1.18,0,0,0,.2-.32,3.17,3.17,0,0,0,.17-.52c0-.22.1-.48.14-.78s.08-.67.11-1.09l.11-1.3h2.46V48h-.59V43.83H86.6Z"/><path class="cls-1" d="M90.91,45.36h.59L93,43.29h.68L92,45.59,93.85,48h-.68l-1.61-2.15h-.65V48h-.59V43.29h.59Z"/><path class="cls-1" d="M96.71,48.07a2,2,0,0,1-.9-.2,2.3,2.3,0,0,1-.69-.54,2.45,2.45,0,0,1-.44-.77,2.5,2.5,0,0,1-.16-.89,2.53,2.53,0,0,1,.16-.91,2.61,2.61,0,0,1,.47-.77,2.23,2.23,0,0,1,.69-.53,2,2,0,0,1,.88-.2,1.86,1.86,0,0,1,.89.21,2.33,2.33,0,0,1,.69.55,2.74,2.74,0,0,1,.45.78,2.61,2.61,0,0,1,.15.87,2.53,2.53,0,0,1-.16.91,2.81,2.81,0,0,1-.46.77,2.44,2.44,0,0,1-.7.53A2,2,0,0,1,96.71,48.07Zm-1.6-2.4a2.1,2.1,0,0,0,.12.7,2,2,0,0,0,.32.59,1.48,1.48,0,0,0,.51.42,1.38,1.38,0,0,0,.65.15,1.33,1.33,0,0,0,.67-.16,1.49,1.49,0,0,0,.5-.43,1.82,1.82,0,0,0,.32-.6,2.24,2.24,0,0,0,.11-.67,2.06,2.06,0,0,0-.12-.7,1.68,1.68,0,0,0-.33-.6,1.8,1.8,0,0,0-.5-.41,1.38,1.38,0,0,0-.65-.15A1.35,1.35,0,0,0,96,44a1.83,1.83,0,0,0-.5.42,1.89,1.89,0,0,0-.31.6A2,2,0,0,0,95.11,45.67Z"/><path class="cls-1" d="M103.07,43.83H101V48h-.59V43.29h2.69Z"/><path class="cls-1" d="M106.15,48.07a2,2,0,0,1-.9-.2,2.3,2.3,0,0,1-.69-.54,2.69,2.69,0,0,1-.45-.77,2.73,2.73,0,0,1-.15-.89,2.53,2.53,0,0,1,.16-.91,2.61,2.61,0,0,1,.47-.77,2.23,2.23,0,0,1,.69-.53,2,2,0,0,1,.88-.2,1.89,1.89,0,0,1,.89.21,2.33,2.33,0,0,1,.69.55,2.5,2.5,0,0,1,.44.78,2.39,2.39,0,0,1,.16.87,2.53,2.53,0,0,1-.16.91,2.81,2.81,0,0,1-.46.77,2.44,2.44,0,0,1-.7.53A2,2,0,0,1,106.15,48.07Zm-1.6-2.4a2.1,2.1,0,0,0,.12.7A1.77,1.77,0,0,0,105,47a1.48,1.48,0,0,0,.51.42,1.38,1.38,0,0,0,.65.15,1.33,1.33,0,0,0,.67-.16,1.49,1.49,0,0,0,.5-.43,1.82,1.82,0,0,0,.32-.6,2.24,2.24,0,0,0,.11-.67,2.06,2.06,0,0,0-.12-.7,1.68,1.68,0,0,0-.33-.6,1.8,1.8,0,0,0-.5-.41,1.41,1.41,0,0,0-.65-.15,1.35,1.35,0,0,0-.67.16,1.83,1.83,0,0,0-.5.42,1.89,1.89,0,0,0-.31.6A2,2,0,0,0,104.55,45.67Z"/><path class="cls-1" d="M110.85,44.62c-.06.61-.12,1.14-.2,1.57a4.54,4.54,0,0,1-.31,1.08,1.63,1.63,0,0,1-.45.62,1.06,1.06,0,0,1-.64.2l-.11-.59a.75.75,0,0,0,.26,0,.49.49,0,0,0,.23-.15,1.18,1.18,0,0,0,.2-.32,3.17,3.17,0,0,0,.17-.52c0-.22.1-.48.14-.78s.08-.67.12-1.09l.1-1.3h2.47V48h-.59V43.83h-1.33Z"/><path class="cls-1" d="M117.07,48V46.2H116L114.93,48h-.69l1.16-1.93a1,1,0,0,1-.38-.21,1.26,1.26,0,0,1-.3-.31,1.34,1.34,0,0,1-.19-.4,1.31,1.31,0,0,1-.07-.44,1.39,1.39,0,0,1,.1-.53,1.45,1.45,0,0,1,.3-.47,1.64,1.64,0,0,1,.44-.33,1.33,1.33,0,0,1,.57-.13h1.79V48Zm0-4.21H115.9a.71.71,0,0,0-.32.07.79.79,0,0,0-.27.2,1,1,0,0,0-.19.29,1,1,0,0,0-.06.36,1.27,1.27,0,0,0,0,.34,1.11,1.11,0,0,0,.17.3.82.82,0,0,0,.25.2.73.73,0,0,0,.33.08h1.21Z"/><path class="cls-1" d="M125.52,43.29V48h-.59V45.88h-2.57V48h-.59V43.29h.59v2.06h2.57V43.29Z"/><path class="cls-1" d="M129.19,48.07a2,2,0,0,1-.89-.2,2.3,2.3,0,0,1-.69-.54,2.69,2.69,0,0,1-.45-.77,2.74,2.74,0,0,1-.16-.89,2.53,2.53,0,0,1,.17-.91,2.58,2.58,0,0,1,.46-.77,2.28,2.28,0,0,1,.7-.53,2,2,0,0,1,.88-.2,1.89,1.89,0,0,1,.89.21,2.46,2.46,0,0,1,.69.55,2.5,2.5,0,0,1,.44.78,2.39,2.39,0,0,1,.16.87,2.53,2.53,0,0,1-.17.91,2.39,2.39,0,0,1-.46.77,2.27,2.27,0,0,1-.69.53A2,2,0,0,1,129.19,48.07Zm-1.59-2.4a2.1,2.1,0,0,0,.12.7A1.77,1.77,0,0,0,128,47a1.48,1.48,0,0,0,.51.42,1.38,1.38,0,0,0,.65.15,1.35,1.35,0,0,0,.67-.16,1.59,1.59,0,0,0,.5-.43,2,2,0,0,0,.32-.6,2.22,2.22,0,0,0,.1-.67,2,2,0,0,0-.44-1.3,1.8,1.8,0,0,0-.5-.41,1.41,1.41,0,0,0-.65-.15,1.35,1.35,0,0,0-.67.16,1.83,1.83,0,0,0-.5.42,1.91,1.91,0,0,0-.32.6A2.25,2.25,0,0,0,127.6,45.67Z"/><path class="cls-1" d="M135.17,43.29h.59V48h-.59V46l-.23.08-.24,0-.29,0H134a1.53,1.53,0,0,1-.68-.13,1.13,1.13,0,0,1-.46-.34,1.46,1.46,0,0,1-.24-.52,2.61,2.61,0,0,1-.08-.64V43.29h.6v1.17a2.94,2.94,0,0,0,0,.57.79.79,0,0,0,.16.37.59.59,0,0,0,.3.2,1.26,1.26,0,0,0,.47.07,2.65,2.65,0,0,0,.62-.07,1.18,1.18,0,0,0,.39-.18Z"/><path class="cls-1" d="M137.56,43.29h.59v1.76h1a2.06,2.06,0,0,1,.62.09,1.42,1.42,0,0,1,.49.29,1.29,1.29,0,0,1,.33.46,1.67,1.67,0,0,1,.13.65,1.64,1.64,0,0,1-.13.65,1.35,1.35,0,0,1-.34.47,1.44,1.44,0,0,1-.5.28,1.72,1.72,0,0,1-.6.1h-1.58Zm.59,4.23h1a.92.92,0,0,0,.73-.27,1,1,0,0,0,.24-.71,1,1,0,0,0-.25-.71,1,1,0,0,0-.72-.26h-1Z"/><path class="cls-1" d="M145.6,48.07a2,2,0,0,1-1.85-1.28,2.64,2.64,0,0,1-.2-.88h-.84V48h-.59V43.29h.59v2.09h.85a2.42,2.42,0,0,1,.21-.88,2.06,2.06,0,0,1,.44-.66,2.05,2.05,0,0,1,2.27-.4,2,2,0,0,1,.67.51,2.55,2.55,0,0,1,.43.76,3,3,0,0,1,.15,1,2.87,2.87,0,0,1-.16,1,2.32,2.32,0,0,1-.44.75,1.91,1.91,0,0,1-.68.48A2,2,0,0,1,145.6,48.07Zm-1.46-2.4a3.08,3.08,0,0,0,.1.78,1.73,1.73,0,0,0,.3.59,1.26,1.26,0,0,0,.47.36,1.29,1.29,0,0,0,.6.13,1.5,1.5,0,0,0,.64-.13,1.37,1.37,0,0,0,.48-.38,1.82,1.82,0,0,0,.3-.59,2.58,2.58,0,0,0,.11-.76,2.39,2.39,0,0,0-.12-.79,1.54,1.54,0,0,0-.31-.58,1.38,1.38,0,0,0-.48-.36,1.44,1.44,0,0,0-.62-.13,1.32,1.32,0,0,0-1.08.51,1.85,1.85,0,0,0-.29.58A2.66,2.66,0,0,0,144.14,45.67Z"/><path class="cls-1" d="M12.8,8h1.83a.69.69,0,0,1,.69.7v9.82a.7.7,0,0,1-.69.7H12.8a.7.7,0,0,1-.69-.7V8.66A.69.69,0,0,1,12.8,8Z"/><path class="cls-1" d="M12.37,6h2.69a.69.69,0,0,1,.69.7V7.94a.69.69,0,0,1-.69.7H12.37a.69.69,0,0,1-.68-.7V6.73A.69.69,0,0,1,12.37,6Z"/><path class="cls-1" d="M13.53,18.2H14c3.79,0,5,3.71,5,5.44v26a.69.69,0,0,1-.69.7H9.17a.69.69,0,0,1-.69-.7V24.45C8.48,21,10.16,18.2,13.53,18.2Z"/><path class="cls-2" d="M10.23,26.26H17.3A.69.69,0,0,1,18,27V44.5a.69.69,0,0,1-.69.7H10.23a.69.69,0,0,1-.68-.7V27A.69.69,0,0,1,10.23,26.26Z"/></svg>